<mxfile host="app.diagrams.net" agent="Mozilla/5.0 (Windows NT 10.0; Win64; x64) AppleWebKit/537.36 (KHTML, like Gecko) Chrome/136.0.0.0 Safari/537.36" version="27.0.6">
  <diagram id="3228e29e-7158-1315-38df-8450db1d8a1d" name="Page-1">
    <mxGraphModel dx="2511" dy="1884" grid="1" gridSize="10" guides="1" tooltips="1" connect="1" arrows="1" fold="1" page="1" pageScale="1" pageWidth="1169" pageHeight="827" background="none" math="0" shadow="0">
      <root>
        <mxCell id="0" />
        <mxCell id="1" parent="0" />
        <mxCell id="21531" value="&lt;font style=&quot;font-size: 48px;&quot;&gt;OCC&lt;/font&gt;" style="ellipse;fillColor=#F08705;opacity=60;strokeColor=none;html=1;fontColor=#000000;" parent="1" vertex="1">
          <mxGeometry x="220" y="310" width="500" height="500" as="geometry" />
        </mxCell>
        <mxCell id="21532" value="&lt;font style=&quot;font-size: 48px;&quot;&gt;YS3D&lt;/font&gt;" style="ellipse;fillColor=#12AAB5;opacity=60;strokeColor=none;html=1;fontColor=#000000;" parent="1" vertex="1">
          <mxGeometry x="60" y="-10" width="500" height="500" as="geometry" />
        </mxCell>
        <mxCell id="21533" value="&lt;font style=&quot;font-size: 48px;&quot;&gt;HOOPS&lt;/font&gt;" style="ellipse;fillColor=#e85642;opacity=60;strokeColor=none;html=1;fontColor=#000000;" parent="1" vertex="1">
          <mxGeometry x="390" y="-10" width="500" height="500" as="geometry" />
        </mxCell>
        <mxCell id="ES53TOTrAkFbz9ve58O1-21540" value="&lt;font style=&quot;font-size: 24px;&quot;&gt;几何解析转换&lt;/font&gt;" style="text;html=1;align=center;verticalAlign=middle;resizable=0;points=[];autosize=1;strokeColor=none;fillColor=none;fontColor=#000000;" vertex="1" parent="1">
          <mxGeometry x="390" y="250" width="170" height="40" as="geometry" />
        </mxCell>
        <mxCell id="ES53TOTrAkFbz9ve58O1-21541" value="&lt;font style=&quot;font-size: 48px;&quot;&gt;parasolid&lt;/font&gt;" style="ellipse;fillColor=#e1d5e7;opacity=60;strokeColor=#9673a6;html=1;fontColor=#000000;" vertex="1" parent="1">
          <mxGeometry x="-120" y="290" width="500" height="500" as="geometry" />
        </mxCell>
        <mxCell id="ES53TOTrAkFbz9ve58O1-21542" value="&lt;font style=&quot;font-size: 24px;&quot;&gt;几何解析转换&lt;/font&gt;" style="text;html=1;align=center;verticalAlign=middle;resizable=0;points=[];autosize=1;strokeColor=none;fillColor=none;fontColor=#000000;" vertex="1" parent="1">
          <mxGeometry x="110" y="350" width="170" height="40" as="geometry" />
        </mxCell>
      </root>
    </mxGraphModel>
  </diagram>
</mxfile>
